<?xml version="1.0" encoding="UTF-8"?>
<svg version="1.1" xmlns="http://www.w3.org/2000/svg" width="110" height="166">
<path d="M0 0 C-0.165 0.598125 -0.33 1.19625 -0.5 1.8125 C-1.1114124 4.11344336 -1.1114124 4.11344336 -1 7 C-2.16409431 8.8146176 -3.32875607 10.62887339 -4.49609375 12.44140625 C-9.77928017 21.42968444 -12.90111689 30.65534172 -14 41 C-6.14009101 34.96797682 -2.20234192 27.8875061 2 19 C2.495 19.99 2.495 19.99 3 21 C4.32 20.67 5.64 20.34 7 20 C6.00390946 24.20571563 4.26243795 27.1863432 1.75 30.625 C-2.83109716 36.99243693 -7.25238192 43.73857693 -8.625 51.5625 C-7.49688237 57.76714698 -5.50692434 63.73961348 -2 69 C2.39250183 66.77636272 2.39250183 66.77636272 4.99609375 62.765625 C5.48846173 61.16351572 5.9447456 59.54974641 6.359375 57.92578125 C6.57078125 57.29027344 6.7821875 56.65476563 7 56 C7.66 55.67 8.32 55.34 9 55 C8.34 56.65 7.68 58.3 7 60 C7.99 60.33 8.98 60.66 10 61 C9.484375 61.70125 8.96875 62.4025 8.4375 63.125 C6.64672073 66.70655855 6.89126038 68.19860703 8 72 C10.05322727 76.64677751 12.44069359 77.96286309 17 80 C19 82 19 82 19.25 85.125 C20.0937107 89.48417196 21.39780014 91.34557819 24.15234375 94.69921875 C26 97 26 97 27.94140625 99.89453125 C32.78492895 106.98587664 37.39225215 110.76388876 44.84375 114.93359375 C50.04240486 118.33716853 53.38420061 123.02447773 57 128 C60.02069929 132.27159774 60.02069929 132.27159774 64.43359375 134.79296875 C67.92202936 136.43364851 68.65873651 138.3142743 70.3125 141.75 C70.82425781 142.77609375 71.33601563 143.8021875 71.86328125 144.859375 C73.04908857 148.13562616 73.22230532 150.54651266 73 154 C69.57407317 153.43269599 68.22140111 152.4982417 66.0625 149.8125 C56.6229812 138.62566602 47.43058883 128.87122113 35 121 C34.13761719 120.41992188 33.27523437 119.83984375 32.38671875 119.2421875 C22.07239677 113.06372294 9.8077213 116.99404071 -1.16381836 119.62670898 C-6.29886006 120.82122257 -11.74380734 121.97895844 -17 121 C-19.41961406 119.10972987 -19.93435461 118.40325023 -20.4375 115.3125 C-19.2265364 106.14377559 -12.48475195 98.24822604 -6 92 C-7.12321825 88.85498889 -8.07866397 87.94811525 -10.9375 86.0625 C-14.1813283 83.87788094 -15.03655913 82.27240145 -17 79 C-19.87461917 76.87528149 -22.62368373 75.17179656 -25.875 73.6875 C-28 72 -28 72 -28.5 69 C-28.14655318 63.86397592 -26.48889562 58.90094809 -25 54 C-27.79286909 52.94332341 -27.79286909 52.94332341 -30 52.8125 C-32 52 -32 52 -33.8125 49.5 C-35.33901907 45.00078591 -35.3627915 41.55105062 -34 37 C-30.43703932 32.17952378 -25.61706576 29.58655121 -19.6875 28.625 C-19.130625 28.41875 -18.57375 28.2125 -18 28 C-17.29719039 26.34824915 -16.63816259 24.67778745 -16 23 C-14.54452149 19.98508023 -13.03142087 17.00261861 -11.51953125 14.015625 C-10.60502434 12.20071668 -9.70261137 10.37953468 -8.82421875 8.546875 C-4.72488426 0 -4.72488426 0 0 0 Z M2.25 104.9375 C1.32960937 105.75541016 1.32960937 105.75541016 0.390625 106.58984375 C-1.11702645 107.78858682 -1.11702645 107.78858682 -1 109 C4.61 109 10.22 109 16 109 C15.0925 107.845 14.185 106.69 13.25 105.5 C12.73953125 104.8503125 12.2290625 104.200625 11.703125 103.53125 C8.1059327 100.29707711 5.2817957 102.18426672 2.25 104.9375 Z " fill="#000000" transform="translate(36,11)"/>
<path d="M0 0 C2.31 0 4.62 0 7 0 C3.68300928 6.30061554 -0.04274696 12.27738886 -3.96459961 18.21337891 C-5.65891256 20.79983489 -7.01704237 23.05112711 -8 26 C-8.66 26 -9.32 26 -10 26 C-10.40798828 27.08861328 -10.40798828 27.08861328 -10.82421875 28.19921875 C-11.96513803 30.91695671 -13.27502926 33.301433 -14.8125 35.8125 C-15.33972656 36.68390625 -15.86695312 37.5553125 -16.41015625 38.453125 C-17.39009618 40.02295507 -18.39338138 41.57881728 -19.43359375 43.109375 C-22.30110808 47.3638473 -23.70548844 50.92196306 -24.4453125 56.01953125 C-25.1262657 58.45082189 -26.07118912 59.40439003 -28 61 C-28.845625 61.474375 -29.69125 61.94875 -30.5625 62.4375 C-33.15777979 64.10114089 -33.92565703 65.16764125 -35 68 C-35 67.01 -35 66.02 -35 65 C-35.66 64.67 -36.32 64.34 -37 64 C-35.57731665 60.9412308 -34.21870547 58.26607689 -32.0703125 55.65234375 C-29.9557404 52.9432976 -28.57946039 50.35613576 -27.125 47.25 C-24.88878301 42.6483374 -22.42212575 38.49209747 -19.515625 34.29296875 C-15.71380972 28.54125336 -12.45634741 22.44211867 -10 16 C-9.34 16 -8.68 16 -8 16 C-8 15.01 -8 14.02 -8 13 C-7.34 13 -6.68 13 -6 13 C-5.88785156 12.43796875 -5.77570313 11.8759375 -5.66015625 11.296875 C-4.90942661 8.68486892 -3.78832624 6.60528678 -2.4375 4.25 C-1.98246094 3.45078125 -1.52742188 2.6515625 -1.05859375 1.828125 C-0.53458984 0.92320313 -0.53458984 0.92320313 0 0 Z " fill="#000000" transform="translate(82,1)"/>
<path d="" fill="#000000" transform="translate(0,0)"/>
<path d="" fill="#000000" transform="translate(0,0)"/>
<path d="" fill="#000000" transform="translate(0,0)"/>
<path d="" fill="#000000" transform="translate(0,0)"/>
</svg>
