<?xml version="1.0" standalone="no"?>
<!DOCTYPE svg PUBLIC "-//W3C//DTD SVG 20010904//EN"
 "http://www.w3.org/TR/2001/REC-SVG-20010904/DTD/svg10.dtd">
<svg version="1.0" xmlns="http://www.w3.org/2000/svg"
 width="386.000000pt" height="106.000000pt" viewBox="0 0 386.000000 106.000000"
 preserveAspectRatio="xMidYMid meet">

<g transform="translate(0.000000,106.000000) scale(0.100000,-0.100000)"
fill="#000000" stroke="none">
<path d="M1494 1026 c-44 -20 -70 -77 -55 -126 14 -47 39 -69 85 -77 72 -11
126 35 126 109 0 43 -24 76 -66 94 -41 17 -50 17 -90 0z"/>
<path d="M2503 1025 c-83 -36 -81 -167 2 -195 73 -24 140 12 151 82 8 47 -18
96 -61 114 -42 17 -51 17 -92 -1z"/>
<path d="M131 847 c-8 -8 -11 -125 -11 -388 0 -330 2 -380 16 -393 20 -20 156
-23 172 -3 6 7 12 78 14 164 2 83 7 155 11 159 4 4 42 -27 85 -69 43 -42 84
-77 92 -77 9 0 49 34 90 75 41 41 80 75 87 75 10 0 13 -37 13 -158 0 -110 4
-162 12 -170 16 -16 160 -16 176 0 9 9 12 110 12 394 0 421 0 420 -57 391 -15
-8 -91 -84 -169 -169 -77 -84 -148 -154 -158 -156 -19 -4 -55 31 -219 210 -96
105 -143 138 -166 115z"/>
<path d="M3100 831 c0 -10 11 -43 24 -72 25 -59 55 -128 109 -259 149 -357
171 -403 206 -433 62 -52 85 -24 196 238 42 99 105 249 141 332 35 84 67 166
70 183 l7 30 -80 0 c-48 0 -86 -5 -95 -12 -9 -7 -26 -35 -36 -63 -65 -164
-145 -352 -156 -363 -17 -17 -24 -7 -61 83 -72 178 -138 331 -147 343 -7 8
-39 12 -94 12 -76 0 -84 -2 -84 -19z"/>
<path d="M1350 766 c-14 -7 -24 -18 -22 -24 1 -7 -2 -13 -8 -13 -20 -3 -25 -5
-47 -19 -11 -7 -19 -20 -16 -27 3 -8 0 -13 -7 -11 -6 2 -17 -6 -23 -17 -7 -11
-19 -25 -27 -32 -8 -7 -11 -13 -6 -13 6 0 2 -6 -9 -13 -14 -11 -15 -16 -5 -22
9 -6 11 -4 5 6 -5 8 -4 11 0 6 5 -4 9 -16 10 -27 1 -16 -1 -17 -12 -8 -21 17
-32 -6 -28 -60 2 -28 0 -40 -6 -31 -13 20 -11 -69 2 -131 6 -27 15 -50 20 -50
6 0 8 -4 5 -9 -3 -5 1 -11 9 -15 8 -3 12 -12 9 -19 -3 -8 2 -21 10 -30 9 -9
16 -19 16 -24 1 -21 111 -119 142 -125 7 -2 16 -7 19 -11 16 -22 248 -40 235
-18 -3 4 6 7 19 5 14 -1 27 2 31 7 3 5 9 7 14 4 5 -3 31 6 57 21 63 34 74 44
66 57 -3 5 -1 7 5 3 13 -8 74 65 67 82 -3 7 -1 11 4 8 5 -3 19 18 32 47 18 40
23 71 23 132 0 44 -3 89 -8 100 -5 11 -10 31 -12 44 -4 31 -13 39 -24 21 -5
-8 -12 -11 -17 -6 -4 4 0 12 9 17 17 9 14 44 -5 56 -6 4 -7 1 -2 -7 5 -9 4
-11 -4 -6 -6 4 -9 12 -5 17 8 13 -16 40 -29 32 -5 -3 -7 -1 -3 5 3 6 2 13 -4
17 -5 3 -10 -2 -10 -12 0 -14 -2 -15 -9 -4 -5 8 -6 21 -3 30 5 14 4 14 -11 2
-15 -12 -17 -12 -12 1 9 22 -63 48 -134 49 -60 1 -137 -24 -126 -41 3 -5 0 -7
-8 -4 -8 3 -18 0 -23 -7 -4 -7 -3 -10 4 -5 6 3 13 2 16 -2 3 -5 -5 -9 -17 -8
-23 2 -48 -26 -71 -80 -20 -45 -30 -114 -17 -114 6 0 7 7 4 17 -4 11 -3 14 5
9 7 -4 17 3 24 18 6 14 15 26 19 26 4 0 10 7 13 16 3 8 2 13 -2 10 -5 -3 -9 1
-9 9 0 10 5 11 18 5 14 -8 16 -6 12 13 -4 21 -4 22 11 3 14 -17 20 -15 18 5
-2 19 154 14 185 -6 13 -9 31 -14 40 -11 9 4 13 1 10 -6 -2 -7 0 -21 5 -32 8
-15 12 -16 19 -5 6 10 8 7 5 -11 -2 -14 2 -41 8 -60 6 -19 9 -62 6 -95 -4 -46
-1 -63 10 -72 12 -10 11 -11 -9 -6 -19 5 -23 3 -18 -9 3 -9 -2 -23 -13 -33
-10 -9 -16 -25 -14 -38 2 -12 1 -16 -2 -9 -5 10 -9 10 -20 1 -8 -6 -11 -16 -7
-22 3 -5 2 -7 -4 -4 -13 8 -65 -27 -56 -38 5 -4 2 -5 -4 -1 -7 4 -21 3 -30 -2
-10 -5 -49 -12 -86 -15 -68 -6 -103 5 -157 48 -8 7 -22 11 -31 10 -10 -2 -16
4 -15 14 0 9 -5 15 -13 13 -9 -2 -11 3 -7 14 5 13 3 14 -7 6 -10 -8 -13 -6
-13 8 0 10 3 17 7 14 4 -2 -1 13 -11 33 -26 56 -31 109 -19 198 6 44 12 94 13
112 1 17 5 35 9 39 5 5 5 0 2 -11 -6 -16 -5 -17 4 -5 6 8 11 21 11 28 0 8 14
34 32 58 35 49 34 59 -2 40z m-43 -62 c-3 -3 -12 -4 -19 -1 -8 3 -5 6 6 6 11
1 17 -2 13 -5z m263 -34 c0 -5 -7 -10 -16 -10 -8 0 -12 5 -9 10 3 6 10 10 16
10 5 0 9 -4 9 -10z m230 -14 c0 -3 -4 -8 -10 -11 -5 -3 -10 -1 -10 4 0 6 5 11
10 11 6 0 10 -2 10 -4z m-344 -34 c-17 -16 -18 -16 -5 5 7 12 15 20 18 17 3
-2 -3 -12 -13 -22z m376 -154 c-8 -8 -9 -4 -5 13 4 13 8 18 11 10 2 -7 -1 -18
-6 -23z m-652 -57 c0 -11 -4 -22 -9 -25 -5 -3 -8 5 -7 19 1 29 16 34 16 6z
m709 -68 c-1 -5 -1 -17 0 -28 1 -16 3 -17 11 -5 5 8 12 11 17 7 9 -9 -17 -28
-29 -21 -4 3 -8 0 -8 -5 0 -6 -4 -11 -10 -11 -5 0 -10 9 -10 21 0 12 4 17 11
13 8 -4 9 0 4 15 -4 12 -2 21 4 21 6 0 10 -3 10 -7z m-102 -95 c-3 -8 -6 -5
-6 6 -1 11 2 17 5 13 3 -3 4 -12 1 -19z m93 -3 c0 -8 -4 -15 -10 -15 -5 0 -10
7 -10 15 0 8 5 15 10 15 6 0 10 -7 10 -15z m-593 -37 c-3 -7 -5 -2 -5 12 0 14
2 19 5 13 2 -7 2 -19 0 -25z m533 -12 c0 -3 -4 -8 -10 -11 -5 -3 -10 -1 -10 4
0 6 5 11 10 11 6 0 10 -2 10 -4z m-115 -16 c-3 -5 -12 -10 -18 -10 -7 0 -6 4
3 10 19 12 23 12 15 0z m-435 -4 c0 -2 -7 -7 -16 -10 -8 -3 -12 -2 -9 4 6 10
25 14 25 6z m90 -26 c0 -5 -4 -10 -10 -10 -5 0 -10 5 -10 10 0 6 5 10 10 10 6
0 10 -4 10 -10z m35 0 c3 -5 -1 -10 -10 -10 -9 0 -13 5 -10 10 3 6 8 10 10 10
2 0 7 -4 10 -10z m245 -10 c0 -5 -2 -10 -4 -10 -3 0 -8 5 -11 10 -3 6 -1 10 4
10 6 0 11 -4 11 -10z m139 -19 c9 -6 10 -11 2 -15 -13 -8 -31 1 -31 15 0 11
11 11 29 0z m-49 -15 c0 -3 -4 -8 -10 -11 -5 -3 -10 -1 -10 4 0 6 5 11 10 11
6 0 10 -2 10 -4z"/>
<path d="M2730 775 c0 -2 13 -19 29 -37 28 -32 31 -38 31 -57 0 -5 11 -12 25
-15 18 -5 23 -11 18 -23 -6 -15 -7 -14 -14 3 -6 16 -8 15 -8 -8 -1 -16 4 -28
10 -28 5 0 8 -4 5 -8 -3 -5 0 -31 7 -58 14 -54 14 -140 1 -194 -4 -19 -7 -41
-5 -49 1 -7 -2 -10 -7 -7 -12 7 -26 -22 -23 -50 1 -11 -6 -27 -16 -34 -15 -12
-16 -12 -5 0 6 8 12 21 12 29 0 10 -7 8 -22 -9 -13 -14 -21 -29 -20 -35 2 -5
1 -7 -3 -3 -4 4 -30 -5 -59 -20 -48 -26 -56 -27 -131 -20 -44 5 -88 8 -97 9
-10 0 -21 5 -24 11 -5 7 -2 8 6 3 9 -6 11 -4 6 4 -5 7 -14 10 -22 7 -8 -3 -13
0 -11 7 1 7 -6 11 -15 11 -10 -1 -15 2 -12 8 8 13 -16 39 -29 31 -6 -3 -7 -1
-3 5 8 13 -17 55 -27 46 -3 -4 -4 5 -1 20 2 14 0 26 -4 26 -5 0 -9 35 -8 78 1
57 7 87 23 117 26 49 59 85 78 85 8 0 15 5 15 11 0 5 4 8 9 5 4 -3 23 -1 42 4
23 7 35 6 40 -1 4 -7 16 -8 29 -4 17 5 21 4 15 -6 -6 -9 -3 -11 8 -6 9 3 20 1
24 -6 11 -17 68 -65 59 -49 -4 7 -1 12 8 12 9 0 16 -9 16 -21 0 -13 -4 -18
-12 -13 -7 4 -2 -6 12 -22 14 -16 26 -31 27 -33 1 -2 0 14 -2 35 -3 22 -6 47
-6 56 -1 52 -119 167 -157 153 -7 -3 -10 0 -7 5 11 18 -131 12 -170 -7 -19 -9
-35 -21 -35 -25 0 -5 -4 -6 -10 -3 -5 3 -10 -3 -10 -15 0 -12 -5 -18 -10 -15
-6 4 -7 11 -4 17 4 7 2 8 -4 4 -6 -4 -8 -14 -5 -23 4 -10 2 -14 -4 -10 -6 4
-17 -1 -25 -11 -21 -24 -52 -86 -39 -78 7 4 8 1 5 -8 -3 -9 -11 -16 -16 -16
-6 0 -8 -9 -5 -20 3 -11 2 -18 -3 -15 -4 2 -10 -12 -14 -33 -9 -57 -7 -140 4
-147 6 -3 10 -17 10 -30 0 -32 10 -56 21 -49 5 3 9 0 9 -5 0 -6 -5 -11 -10
-11 -15 0 41 -78 86 -120 20 -19 34 -29 30 -22 -14 23 11 12 38 -18 15 -17 31
-28 36 -25 6 4 10 1 10 -5 0 -6 4 -9 9 -5 5 3 12 1 16 -5 3 -5 11 -10 16 -10
6 0 7 5 4 10 -3 6 1 10 10 10 9 0 14 -4 10 -9 -12 -21 128 -26 210 -8 11 2 24
5 28 6 5 0 5 5 2 11 -3 6 1 7 9 4 16 -6 59 20 109 66 36 32 76 86 56 76 -7 -4
-6 -1 4 7 19 16 24 32 5 21 -7 -4 -8 -3 -4 5 4 6 11 9 16 6 5 -3 14 3 20 14 5
11 6 22 2 25 -11 6 -9 43 3 53 4 5 5 3 1 -4 -3 -6 -2 -14 3 -17 5 -4 15 19 21
50 12 58 6 144 -13 179 -6 11 -12 25 -12 30 -2 23 -18 44 -28 38 -6 -3 -7 -1
-3 5 9 15 -34 73 -48 65 -6 -3 -8 -2 -3 2 10 12 -32 55 -48 49 -7 -3 -16 0
-21 7 -4 8 -3 10 4 5 7 -4 12 -5 12 -1 0 6 -62 45 -72 45 -5 0 -8 -2 -8 -5z
m60 -29 c0 -3 -4 -8 -10 -11 -5 -3 -10 -1 -10 4 0 6 5 11 10 11 6 0 10 -2 10
-4z m-346 -15 c4 -5 -3 -7 -14 -4 -23 6 -26 13 -6 13 8 0 17 -4 20 -9z m401
-30 c3 -5 2 -12 -3 -15 -5 -3 -9 1 -9 9 0 17 3 19 12 6z m-575 -61 c0 -5 -5
-10 -11 -10 -5 0 -7 5 -4 10 3 6 8 10 11 10 2 0 4 -4 4 -10z m356 -17 c-10
-10 -19 5 -10 18 6 11 8 11 12 0 2 -7 1 -15 -2 -18z m-263 -17 c6 -16 -2 -28
-14 -20 -12 7 -11 34 0 34 5 0 11 -6 14 -14z m321 -1 c3 -8 1 -15 -4 -15 -6 0
-10 7 -10 15 0 8 2 15 4 15 2 0 6 -7 10 -15z m197 -86 c-5 -13 -10 -19 -10
-12 -1 15 10 45 15 40 3 -2 0 -15 -5 -28z m-684 -141 c-2 -13 -4 -5 -4 17 -1
22 1 32 4 23 2 -10 2 -28 0 -40z m626 -118 c3 -11 1 -18 -4 -14 -5 3 -9 12 -9
20 0 20 7 17 13 -6z m-527 -82 c-9 -5 -13 -14 -10 -20 4 -7 2 -8 -4 -4 -9 5
-9 12 0 26 7 10 16 16 21 13 5 -3 2 -10 -7 -15z m567 -23 c-12 -9 -19 -10 -22
-3 -4 12 20 29 32 21 4 -3 0 -11 -10 -18z m-453 -11 c0 -2 -7 -4 -15 -4 -8 0
-15 4 -15 10 0 5 7 7 15 4 8 -4 15 -8 15 -10z"/>
</g>
</svg>
