<?xml version="1.0" standalone="no"?>
<!DOCTYPE svg PUBLIC "-//W3C//DTD SVG 20010904//EN"
 "http://www.w3.org/TR/2001/REC-SVG-20010904/DTD/svg10.dtd">
<svg version="1.0" xmlns="http://www.w3.org/2000/svg"
 width="48" height="48" viewBox="0 0 274.000000 274.000000"
 preserveAspectRatio="xMidYMid meet">

<g transform="translate(0.000000,274.000000) scale(0.100000,-0.100000)"
fill="#000000" stroke="none">
<path d="M1189 2650 c-424 -67 -796 -337 -987 -715 -151 -300 -178 -676 -72
-1005 33 -102 112 -257 181 -353 114 -160 310 -328 487 -416 238 -119 573
-164 834 -111 270 55 493 174 684 364 182 183 302 403 360 661 25 113 30 353
10 476 -89 538 -482 956 -1016 1080 -97 23 -386 34 -481 19z m429 -86 c441
-90 793 -395 941 -816 46 -132 64 -244 64 -398 1 -154 -12 -245 -55 -380 -135
-426 -491 -747 -932 -842 -138 -29 -368 -30 -506 -1 -244 52 -442 161 -628
345 -138 137 -234 292 -298 483 -169 507 7 1063 441 1388 158 118 392 211 595
237 97 12 281 4 378 -16z"/>
<path d="M1330 2039 c-61 -25 -100 -85 -100 -152 0 -113 133 -188 231 -131
102 60 106 194 8 267 -31 23 -103 31 -139 16z"/>
<path d="M717 1953 c-4 -3 -7 -39 -7 -80 0 -69 -1 -73 -23 -73 -31 0 -67 -27
-67 -50 0 -23 36 -50 67 -50 21 0 22 -5 25 -77 l3 -78 43 -3 c62 -5 72 8 72
89 l0 69 50 0 c28 0 50 -2 50 -4 0 -2 7 -66 15 -142 17 -153 27 -174 81 -174
27 0 42 10 93 68 l61 67 -2 -139 -3 -140 -120 -48 c-147 -59 -164 -67 -176
-90 -5 -10 -22 -102 -38 -205 -32 -206 -30 -233 20 -258 33 -18 50 -19 82 -4
38 17 47 43 72 200 12 83 25 152 27 154 1 1 53 24 115 49 111 46 113 46 228
46 115 0 117 0 231 -47 87 -35 116 -51 119 -67 2 -12 13 -82 25 -156 19 -125
22 -137 50 -162 34 -32 58 -35 99 -13 51 26 53 54 21 259 -16 101 -33 193 -38
203 -13 24 -29 32 -177 91 l-120 48 -3 140 -2 139 61 -67 c51 -58 66 -68 93
-68 55 0 65 22 81 171 8 74 15 137 15 142 0 4 23 7 50 7 l50 0 0 -69 c0 -81
10 -94 72 -89 l43 3 3 78 c3 72 4 77 25 77 31 0 67 27 67 50 0 23 -36 50 -67
50 -21 0 -22 5 -25 78 l-3 77 -43 3 c-62 5 -72 -8 -72 -89 l0 -69 -42 0 c-39
0 -45 4 -58 33 -24 52 -98 50 -120 -3 -12 -28 -16 -30 -67 -30 -53 0 -57 -2
-96 -46 -50 -57 -105 -84 -172 -84 -67 0 -122 27 -172 84 -39 44 -43 46 -96
46 -51 0 -55 2 -67 30 -22 53 -96 55 -120 3 -13 -29 -19 -33 -57 -33 l-43 0 0
68 c0 40 -5 73 -12 80 -13 13 -90 17 -101 5z m424 -270 c-5 -10 -20 -28 -34
-41 l-24 -23 -7 23 c-13 50 -8 58 34 58 36 0 40 -2 31 -17z m559 -10 c0 -46
-13 -57 -36 -31 -50 57 -50 58 -5 58 38 0 41 -2 41 -27z"/>
</g>
</svg>
