<?xml version="1.0" standalone="no"?>
<!DOCTYPE svg PUBLIC "-//W3C//DTD SVG 20010904//EN"
 "http://www.w3.org/TR/2001/REC-SVG-20010904/DTD/svg10.dtd">
<svg version="1.0" xmlns="http://www.w3.org/2000/svg"
 width="48" height="48" viewBox="0 0 64.000000 64.000000"
 preserveAspectRatio="xMidYMid meet">

<g transform="translate(0.000000,64.000000) scale(0.100000,-0.100000)"
fill="#000000" stroke="none">
<path d="M478 578 c-15 -12 -20 -28 -35 -100 -4 -19 -14 -30 -37 -38 -18 -6
-48 -22 -66 -35 -19 -14 -41 -25 -51 -25 -9 0 -27 -9 -41 -19 -13 -11 -63 -30
-112 -42 -70 -19 -91 -21 -106 -11 -11 7 -22 12 -25 12 -9 0 -5 -176 4 -185 5
-6 11 -26 13 -45 3 -33 6 -35 41 -38 l37 -3 0 40 0 41 214 0 215 0 3 -37 c3
-36 5 -38 41 -41 l37 -3 0 39 c0 26 5 42 15 46 22 8 19 68 -5 99 -25 31 -25
36 0 67 25 32 26 53 3 46 -22 -7 -105 62 -85 71 20 8 44 63 38 87 -6 23 -60
86 -74 86 -4 0 -15 -6 -24 -12z m42 -32 c0 -7 7 -19 15 -26 23 -19 18 -25 -17
-24 -34 1 -46 19 -34 50 7 18 36 18 36 0z m18 -88 c-3 -7 -17 -13 -33 -13 -16
0 -30 6 -32 13 -3 8 7 12 32 12 25 0 35 -4 33 -12z m-118 -55 c0 -9 7 -25 16
-34 16 -17 15 -19 -12 -29 -47 -18 -84 -23 -84 -12 0 6 -3 17 -6 25 -3 10 8
24 33 41 44 30 53 32 53 9z m113 -34 c54 -48 69 -69 48 -69 -18 0 -131 90
-131 105 0 26 23 16 83 -36z m-219 -31 c3 -13 6 -26 6 -30 0 -10 -87 -36 -160
-48 -82 -13 -80 -13 -80 4 0 8 31 22 85 36 46 12 92 31 101 41 23 25 40 24 48
-3z m216 -37 c19 -14 37 -26 39 -28 2 -1 -7 -16 -19 -32 -21 -30 -24 -31 -101
-31 -46 0 -79 -4 -79 -10 0 -6 47 -10 120 -10 100 0 120 -2 120 -15 0 -13 -39
-15 -290 -15 -251 0 -290 2 -290 15 0 13 20 15 120 15 73 0 120 4 120 10 0 6
-41 10 -102 10 -110 1 -116 13 -13 25 55 6 260 70 302 94 19 10 22 9 73 -28z
m-480 -56 c0 -14 -4 -25 -10 -25 -5 0 -10 11 -10 25 0 14 5 25 10 25 6 0 10
-11 10 -25z m550 -26 c0 -5 -7 -9 -15 -9 -15 0 -20 12 -9 23 8 8 24 -1 24 -14z
m-520 -114 c0 -16 -6 -25 -15 -25 -9 0 -15 9 -15 25 0 16 6 25 15 25 9 0 15
-9 15 -25z m510 0 c0 -16 -6 -25 -15 -25 -9 0 -15 9 -15 25 0 16 6 25 15 25 9
0 15 -9 15 -25z"/>
<path d="M310 200 c0 -5 5 -10 10 -10 6 0 10 5 10 10 0 6 -4 10 -10 10 -5 0
-10 -4 -10 -10z"/>
</g>
</svg>
