<svg
   version="1.0"
   width="48"
   height="48"
   viewBox="0 0 366.76318 511.66266"
   preserveAspectRatio="xMidYMid meet"
   xmlns="http://www.w3.org/2000/svg">
  <g
     transform="matrix(0.1,0,0,-0.1,-72.7,511.66265)"
     fill="#000000"
     stroke="none">
    <path
       d="m 1941,5110 c -235,-50 -418,-203 -504,-421 -103,-259 -23,-563 194,-746 123,-103 261,-154 424,-154 212,-1 393,85 525,250 96,120 143,253 144,411 0,119 -14,181 -69,295 -106,221 -323,362 -570,371 -55,2 -120,-1 -144,-6 z m 219,-342 c 92,-26 193,-129 219,-223 58,-210 -103,-425 -319,-425 -121,0 -241,75 -298,185 -37,72 -42,188 -12,268 60,159 238,244 410,195 z"
       />
    <path
       d="m 1755,3765 c -116,-36 -138,-55 -542,-458 -412,-411 -433,-435 -469,-559 -21,-71 -21,-203 1,-270 39,-119 60,-146 297,-384 l 230,-231 -22,-79 C 1158,1445 1022,1129 843,834 753,685 727,613 727,500 727,280 869,88 1080,23 c 73,-22 217,-22 290,0 136,42 224,121 333,299 188,306 328,613 442,963 l 52,160 h 264 264 l 5,-195 c 4,-117 11,-206 18,-223 16,-37 17,-35 -25,-43 -60,-11 -167,-52 -234,-90 -247,-139 -408,-392 -425,-669 -5,-82 -4,-94 18,-135 17,-32 37,-52 68,-68 l 44,-22 h 1033 c 850,0 1039,2 1066,14 42,17 84,67 97,114 14,55 -5,198 -40,305 -89,263 -315,475 -579,540 -35,9 -66,18 -68,20 -2,3 2,26 9,53 10,37 13,167 13,524 0,438 -1,479 -19,530 -60,177 -192,301 -367,344 -55,13 -135,16 -510,16 h -444 l 4,437 c 2,315 0,453 -9,493 -38,177 -176,320 -359,374 -65,19 -208,20 -266,1 z m 198,-329 c 50,-20 95,-78 103,-131 8,-59 1,-782 -9,-791 -4,-4 -67,51 -140,123 -109,108 -139,132 -170,138 -84,16 -156,-18 -188,-89 -47,-103 -31,-128 251,-411 257,-259 271,-279 255,-361 -9,-52 -77,-120 -129,-129 -86,-17 -92,-12 -480,373 -200,200 -364,371 -372,389 -18,41 -18,95 0,136 17,38 707,729 751,751 37,20 85,20 128,2 z M 3317,2098 c 74,-49 73,-41 73,-541 0,-444 0,-444 -23,-478 -54,-82 -171,-100 -244,-36 -60,53 -63,68 -63,350 0,246 -1,255 -23,297 -16,30 -37,51 -67,67 -42,22 -50,23 -323,23 h -279 l 6,28 c 22,89 18,210 -10,305 -5,17 16,18 453,15 l 459,-3 z M 1685,1494 c 28,-13 76,-29 107,-35 l 57,-11 -51,-147 C 1702,1024 1588,777 1447,542 1345,373 1309,339 1225,338 c -89,-2 -165,74 -165,164 0,38 12,65 84,185 148,246 266,504 355,775 l 42,127 47,-36 c 26,-20 70,-47 97,-59 z M 3640,660 c 84,-13 195,-68 262,-129 51,-47 109,-131 123,-178 l 6,-23 h -801 -802 l 7,28 c 15,61 103,169 181,223 53,36 131,67 197,78 74,12 749,13 827,1 z"
       />
  </g>
</svg>
