<?xml version="1.0" standalone="no"?>
<!DOCTYPE svg PUBLIC "-//W3C//DTD SVG 20010904//EN"
 "http://www.w3.org/TR/2001/REC-SVG-20010904/DTD/svg10.dtd">
<svg version="1.0" xmlns="http://www.w3.org/2000/svg"
 width="166" height="48" viewBox="0 0 518.000000 150.000000"
 preserveAspectRatio="xMidYMid meet">

<g transform="translate(0.000000,150.000000) scale(0.100000,-0.100000)"
fill="#000000" stroke="none">
<path d="M2521 1444 c-55 -46 -59 -124 -10 -173 49 -50 119 -49 169 1 25 25
30 37 30 80 0 44 -4 54 -34 84 -45 45 -108 48 -155 8z m136 -26 c45 -41 36
-116 -18 -143 -35 -19 -53 -19 -89 0 -34 18 -55 71 -41 106 24 65 97 83 148
37z"/>
<path d="M2117 1412 c-30 -33 -21 -74 32 -143 66 -88 123 -137 212 -187 42
-23 82 -49 89 -57 16 -19 8 -201 -10 -234 -6 -12 -42 -66 -79 -119 -90 -127
-211 -343 -211 -375 0 -34 29 -66 66 -73 44 -8 72 20 141 147 51 92 229 348
243 348 16 0 197 -262 250 -361 49 -92 69 -119 93 -129 37 -15 73 1 97 44 15
27 13 32 -49 150 -35 67 -103 183 -151 257 -95 146 -110 182 -110 276 0 71 1
73 110 132 113 62 250 213 250 277 0 40 -26 65 -68 65 -34 0 -47 -11 -120
-103 -29 -37 -72 -74 -118 -103 -65 -40 -81 -46 -147 -51 -41 -3 -94 -3 -119
1 -60 9 -182 90 -230 153 -66 86 -86 103 -122 103 -19 0 -40 -8 -49 -18z m138
-92 c53 -65 113 -113 195 -156 50 -26 240 -26 290 0 83 44 141 91 199 161 64
78 100 95 119 58 13 -25 6 -39 -53 -113 -69 -86 -106 -118 -198 -168 -102 -56
-111 -72 -104 -171 6 -95 23 -136 114 -272 76 -113 203 -340 203 -362 0 -24
-37 -50 -62 -44 -17 5 -40 38 -87 124 -63 118 -245 373 -265 373 -19 0 -30
-13 -123 -135 -50 -66 -116 -167 -148 -225 -68 -121 -82 -140 -106 -140 -23 0
-49 26 -49 49 0 27 135 260 219 379 78 110 90 148 91 282 0 72 -14 91 -107
142 -92 50 -130 82 -197 168 -66 82 -71 95 -46 120 28 28 46 17 115 -70z"/>
<path d="M801 1265 c-108 -91 -9 -256 122 -202 88 37 98 162 17 210 -43 26
-103 22 -139 -8z m121 -16 c28 -15 50 -72 39 -102 -12 -32 -58 -67 -87 -67
-29 0 -82 48 -85 75 -3 41 2 57 26 80 26 27 72 33 107 14z"/>
<path d="M2037 1228 c-20 -29 -37 -62 -39 -72 -4 -26 19 -32 27 -7 3 11 22 43
41 70 38 57 40 61 20 61 -7 0 -30 -24 -49 -52z"/>
<path d="M3090 1266 c0 -8 5 -18 10 -21 6 -4 25 -31 41 -61 17 -30 35 -54 40
-54 20 0 7 39 -28 90 -39 55 -63 73 -63 46z"/>
<path d="M4201 1185 c-81 -69 -50 -191 54 -211 43 -8 101 20 120 57 8 15 15
47 15 70 0 33 -6 47 -34 75 -29 29 -41 34 -79 34 -34 0 -53 -6 -76 -25z m127
-21 c71 -50 30 -164 -58 -164 -52 0 -96 58 -85 111 13 59 92 89 143 53z"/>
<path d="M2096 1158 c-28 -48 -31 -63 -16 -73 14 -8 64 95 52 107 -7 7 -19 -5
-36 -34z"/>
<path d="M3046 1191 c-6 -9 39 -97 55 -106 19 -12 8 42 -16 78 -27 40 -31 42
-39 28z"/>
<path d="M830 1012 c-56 -28 -60 -44 -60 -277 0 -164 -14 -362 -30 -431 0 0
-59 -29 -131 -64 -143 -69 -162 -87 -142 -140 l11 -30 -196 -2 c-123 -2 -197
-7 -197 -13 0 -16 885 -20 3045 -15 1313 3 1985 8 1985 15 0 6 -98 11 -269 13
-207 2 -267 5 -263 15 2 6 14 62 27 122 29 144 24 159 -91 245 -46 35 -86 65
-88 66 -2 2 4 21 13 44 12 30 16 74 16 171 0 130 0 131 -28 159 -23 23 -41 29
-95 35 -71 8 -170 -1 -200 -17 -34 -18 -47 -71 -47 -188 0 -76 5 -122 15 -147
8 -19 15 -41 15 -48 0 -7 -31 -36 -70 -65 -91 -68 -120 -103 -120 -146 0 -32
32 -191 46 -227 6 -16 -86 -17 -1377 -17 l-1384 0 -1 68 c-2 167 -16 284 -35
303 -10 10 -59 31 -109 46 l-90 27 0 39 0 39 35 -31 c46 -40 86 -41 115 -4 30
39 20 67 -56 143 l-64 66 -20 103 c-21 113 -29 127 -77 148 -41 16 -41 16 -83
-5z m74 -23 c31 -14 41 -41 60 -153 l16 -89 70 -73 c63 -64 70 -76 60 -94 -6
-11 -19 -20 -28 -20 -10 0 -54 37 -99 83 l-81 82 -16 100 c-9 56 -16 104 -16
108 0 4 -7 7 -15 7 -19 0 -19 -13 4 -138 17 -94 22 -107 55 -141 31 -32 36
-43 36 -85 0 -56 -84 -332 -109 -358 -9 -9 -81 -44 -160 -77 -137 -59 -145
-61 -168 -46 -13 9 -23 24 -21 33 2 13 204 128 270 154 18 7 38 241 38 439 0
218 5 249 44 267 28 14 31 14 60 1z m3506 -114 c18 -16 20 -31 20 -145 0 -121
-2 -132 -36 -226 -41 -112 -49 -124 -75 -124 -15 0 -18 5 -14 23 4 12 2 35 -4
49 -8 22 -4 43 19 108 26 69 30 95 30 180 0 82 -3 100 -15 100 -12 0 -15 -18
-15 -98 0 -90 -17 -180 -40 -205 -4 -4 -17 19 -28 51 -17 45 -22 82 -22 156 0
74 -3 97 -12 94 -9 -3 -14 -34 -16 -96 -3 -86 -1 -97 39 -208 46 -125 45 -146
-4 -152 -31 -4 -34 2 -82 133 -32 90 -35 106 -35 214 0 168 4 171 173 167 77
-2 101 -7 117 -21z m183 -533 c8 -18 6 -46 -7 -115 -11 -51 -23 -104 -28 -119
-11 -32 -39 -44 -68 -28 -24 13 -25 39 -5 130 22 100 21 103 -40 149 -30 23
-55 45 -55 50 0 5 7 25 15 45 l16 37 81 -63 c44 -34 85 -73 91 -86z m-3527
113 c45 -14 86 -31 91 -37 6 -7 16 -82 22 -167 12 -165 9 -181 -34 -181 -34 0
-42 17 -49 105 -4 44 -9 99 -12 122 l-6 42 -69 7 c-38 4 -72 10 -74 14 -4 7 4
37 30 108 6 16 6 16 101 -13z m3086 -15 l16 -39 -54 -41 c-62 -47 -63 -53 -38
-175 15 -72 15 -78 -2 -96 -21 -23 -47 -25 -64 -4 -14 17 -49 172 -50 220 0
17 7 41 16 53 16 23 141 122 154 122 4 0 14 -18 22 -40z m46 -79 c11 -6 10
-16 -2 -52 -9 -24 -16 -63 -16 -86 0 -34 5 -46 28 -63 39 -31 136 -25 164 10
22 28 21 79 -5 145 -26 66 3 70 77 10 l29 -23 -17 -95 c-10 -53 -15 -105 -11
-116 6 -21 3 -21 -167 -21 l-173 0 3 43 c2 23 -3 75 -11 115 l-14 73 45 35
c49 37 51 38 70 25z m120 -11 c6 0 12 -7 12 -15 0 -11 -12 -15 -50 -15 -27 0
-50 4 -50 10 0 15 33 30 55 25 11 -3 26 -5 33 -5z m-3299 -36 c34 -7 34 -5 48
-157 l8 -87 -234 0 c-129 0 -232 2 -230 4 3 3 58 28 124 56 66 28 128 61 137
73 10 12 23 43 29 70 12 45 14 47 50 47 20 0 50 -3 68 -6z m3329 -36 c15 -15
16 -63 2 -89 -9 -15 -22 -19 -63 -19 -29 0 -58 5 -65 12 -13 13 -17 90 -5 101
11 12 118 8 131 -5z"/>
<path d="M2495 375 c-5 -2 -27 -6 -47 -10 -51 -8 -48 -25 3 -25 45 0 83 16 74
31 -6 9 -12 10 -30 4z"/>
<path d="M2675 370 c-11 -18 1 -23 60 -28 63 -5 77 13 18 23 -21 4 -45 9 -55
11 -9 3 -19 0 -23 -6z"/>
<path d="M2438 283 c-51 -3 -68 -8 -68 -18 0 -12 13 -15 58 -14 66 1 103 10
103 24 0 12 -6 12 -93 8z"/>
<path d="M2662 279 c6 -18 41 -27 111 -28 44 -1 57 2 57 14 0 11 -13 15 -54
15 -29 0 -68 3 -86 7 -25 5 -32 3 -28 -8z"/>
</g>
</svg>
