<?xml version="1.0" standalone="no"?>
<!DOCTYPE svg PUBLIC "-//W3C//DTD SVG 20010904//EN"
 "http://www.w3.org/TR/2001/REC-SVG-20010904/DTD/svg10.dtd">
<svg version="1.0" xmlns="http://www.w3.org/2000/svg"
 width="48" height="48" viewBox="0 0 348.000000 348.000000"
 preserveAspectRatio="xMidYMid meet">

<g transform="translate(0.000000,348.000000) scale(0.100000,-0.100000)"
fill="#000000" stroke="none">
<path d="M1700 3245 c0 -159 -4 -236 -11 -241 -7 -4 -9 -21 -5 -43 3 -20 8
-61 10 -91 4 -55 4 -55 -108 -235 -62 -99 -157 -254 -210 -345 -54 -91 -111
-184 -127 -207 -16 -23 -29 -45 -29 -50 0 -5 -29 -58 -65 -118 -36 -60 -65
-112 -65 -116 0 -5 -6 -12 -14 -16 -7 -4 -29 -39 -47 -77 -22 -45 -44 -75 -62
-85 -54 -30 -124 -157 -161 -292 -9 -31 -34 -83 -56 -116 -22 -34 -40 -63 -40
-67 0 -3 -8 -14 -19 -25 -24 -24 -37 -122 -21 -160 17 -41 66 -74 121 -79 44
-4 50 -2 94 39 78 72 86 111 58 287 l-15 92 39 43 c21 23 49 59 62 80 l23 38
32 -20 c17 -11 67 -39 111 -62 94 -49 161 -100 171 -132 3 -12 12 -29 19 -37
6 -8 22 -72 34 -143 12 -70 33 -165 46 -212 14 -47 25 -92 25 -101 0 -9 13
-29 30 -46 24 -23 30 -38 30 -71 0 -50 30 -154 59 -203 25 -41 27 -90 6 -130
-18 -36 -20 -94 -2 -94 8 0 8 -3 -2 -9 -10 -6 -15 -37 -17 -105 l-4 -96 174 0
c96 0 177 3 179 8 3 6 -5 124 -17 237 -2 17 -11 56 -21 87 l-18 56 39 89 c28
65 39 102 39 143 1 30 6 64 12 75 12 23 37 113 64 235 15 65 19 118 17 228
l-2 142 35 36 c42 44 71 59 129 68 24 4 51 13 60 21 34 30 58 22 115 -40 l56
-60 -11 -85 c-6 -47 -11 -96 -11 -110 1 -14 -2 -48 -5 -77 -7 -63 15 -116 54
-131 65 -25 85 -23 142 16 60 41 88 81 94 133 3 35 -11 79 -26 79 -4 0 -8 7
-8 16 0 9 -18 43 -39 75 -22 32 -47 80 -56 106 -50 144 -112 245 -162 264 -26
9 -74 98 -77 142 -1 17 -13 37 -29 50 -24 20 -77 117 -77 143 0 6 -20 39 -45
75 -45 64 -57 91 -31 70 21 -17 43 13 25 35 -16 19 -61 42 -74 38 -9 -3 -68
100 -287 500 l-76 140 0 335 1 334 -27 3 -26 3 0 -234z m50 -265 c0 -13 -9
-22 -25 -26 -32 -8 -36 -4 -29 23 10 36 54 38 54 3z m-27 -221 c4 -14 11 -19
24 -16 14 4 27 -12 63 -86 34 -70 353 -705 468 -932 8 -16 22 -42 31 -58 12
-21 13 -29 4 -35 -7 -4 -77 -6 -155 -4 -79 2 -154 2 -168 2 -31 -2 -93 -7
-102 -9 -4 -1 -10 -10 -13 -21 -10 -31 -25 -13 -25 28 0 47 -28 99 -71 133
-32 26 -38 27 -106 20 -64 -6 -77 -11 -108 -41 -19 -19 -35 -39 -35 -44 0 -6
-5 -28 -11 -50 l-11 -39 -71 6 c-40 3 -117 9 -172 12 -191 11 -195 12 -195 25
0 6 16 26 35 45 19 19 39 52 45 74 6 22 26 61 45 88 20 26 42 64 51 83 9 19
26 49 39 65 12 17 25 40 29 51 4 12 37 75 74 140 38 66 101 180 141 254 150
275 141 262 157 249 18 -15 29 10 20 51 -6 34 9 42 17 9z m778 -1509 c10 -27
8 -33 -21 -60 -18 -17 -33 -30 -34 -30 -1 0 1 26 5 58 4 31 8 68 8 82 l1 24
15 -22 c9 -12 21 -35 26 -52z m149 -237 c-35 -71 -61 -88 -119 -79 -49 8 -82
45 -91 100 -4 25 -3 46 2 46 4 0 8 -3 8 -7 0 -12 53 -34 59 -25 3 5 24 9 46 9
22 1 41 6 43 12 2 6 10 11 17 11 8 0 18 6 22 14 4 7 15 15 23 18 27 9 23 -32
-10 -99z m-1916 81 c9 -3 16 -13 16 -20 0 -19 36 -32 84 -30 24 1 40 -3 43
-12 3 -7 12 -11 19 -8 18 7 18 -25 0 -69 -15 -34 -59 -65 -94 -65 -24 0 -122
103 -122 128 0 27 20 82 30 82 5 0 15 -3 24 -6z m1042 -482 c-7 -23 -6 -47 3
-81 16 -62 16 -122 2 -149 -6 -11 -11 -40 -12 -64 l-1 -43 -16 55 c-17 63 -19
115 -7 217 6 53 5 77 -4 87 -10 12 -10 22 0 50 l13 35 16 -37 c13 -29 14 -44
6 -70z m-7 -414 l-2 -73 -9 57 c-9 53 -7 88 7 88 3 0 4 -33 4 -72z"/>
</g>
</svg>
